<?xml version="1.0"?>
<svg xmlns="http://www.w3.org/2000/svg" height="512px" viewBox="-48 0 480 480.16664" width="512px"><g><path d="m40.085938 296c0 83.949219 68.054687 152 152 152 83.949218 0 152-68.050781 152-152 0-83.945312-68.050782-152-152-152-83.90625.09375-151.90625 68.089844-152 152zm288 0c-.097657 56.527344-35.121094 107.109375-88 127.089844v-7.257813h-16v12.207031c-21.003907 5.28125-42.992188 5.28125-64 0v-12.207031h-16v7.257813c-64.324219-24.316406-100.359376-92.835938-83.9375-159.613282 16.417968-66.777343 80.117187-110.777343 148.382812-102.488281 68.265625 8.285157 119.589844 66.246094 119.554688 135.011719zm0 0" data-original="#000000" class="active-path" data-old_color="#000000" fill="#0DB496"/><path d="m73.0625 155.847656c-58.851562 49.921875-80.296875 131.265625-53.710938 203.710938 26.589844 72.449218 95.5625 120.609375 172.734376 120.609375 77.175781 0 146.148437-48.160157 172.734374-120.609375 26.589844-72.445313 5.144532-153.789063-53.710937-203.710938l72.175781-144.273437c1.246094-2.484375 1.105469-5.4375-.359375-7.800781-1.46875-2.359376-4.058593-3.789063-6.839843-3.773438h-96c-3.046876-.015625-5.835938 1.699219-7.199219 4.425781l-54.6875 109.460938c-17.316407-2.515625-34.90625-2.515625-52.222657 0l-54.691406-109.460938c-1.359375-2.726562-4.152344-4.441406-7.199218-4.425781h-96c-2.773438 0-5.347657 1.433594-6.804688 3.792969-1.460938 2.355469-1.59375 5.300781-.355469 7.78125zm225.160156-10.007812c-3.457031-2.449219-6.96875-4.800782-10.589844-7.03125l61.398438-122.808594h14.113281zm-24.632812-14.742188c-3.730469-1.863281-7.5625-3.605468-11.488282-5.226562l54.929688-109.871094h14.113281zm11.441406-115.097656h14.113281l-52.175781 104.359375c-4.082031-1.277344-8.242188-2.398437-12.433594-3.359375zm75.054688 280c.105468 85.3125-63.75 157.160156-148.484376 167.066406-84.734374 9.910156-163.445312-45.261718-183.027343-128.296875-19.585938-83.035156 26.175781-167.5625 106.410156-196.5625.652344-.136719 1.289063-.359375 1.886719-.65625l.097656-.070312c51.339844-18.042969 108.242188-10.035157 152.605469 21.484375 44.363281 31.519531 70.65625 82.617187 70.511719 137.035156zm-260.941407-280 50.542969 101c-4.199219.992188-8.351562 2.082031-12.433594 3.359375l-52.222656-104.359375zm-32 0 54.933594 109.871094c-3.902344 1.601562-7.734375 3.34375-11.496094 5.226562l-57.550781-115.097656zm-32 0 61.398438 122.808594c-3.625 2.207031-7.136719 4.582031-10.59375 7.03125l-64.917969-129.839844zm0 0" data-original="#000000" class="active-path" data-old_color="#000000" fill="#0DB496"/><path d="m174.285156 214.398438-14.015625 42.648437h-45.445312c-8.089844-.058594-15.289063 5.125-17.796875 12.820313-2.503906 7.691406.261718 16.121093 6.835937 20.835937l36.6875 26.335937-14.007812 42.585938c-2.59375 7.625.121093 16.050781 6.679687 20.726562 3.152344 2.324219 6.949219 3.597657 10.863282 3.648438v15.832031h16v-22.839843l24-17.230469v24.238281h16v-24.238281l24 17.222656v22.847656h16v-15.832031c3.917968-.066406 7.71875-1.355469 10.863281-3.6875 6.558593-4.679688 9.273437-13.101562 6.683593-20.726562l-14.007812-42.585938 36.6875-26.335938c6.574219-4.714843 9.335938-13.144531 6.832031-20.839843-2.503906-7.691407-9.703125-12.875-17.792969-12.816407h-45.449218l-14.015625-42.609374c-2.558594-7.65625-9.726563-12.816407-17.800781-12.816407-8.070313 0-15.238282 5.160157-17.800782 12.816407zm20.394532 5 15.808593 48.121093c1.078125 3.28125 4.144531 5.496094 7.597657 5.496094h51.242187c1.191406-.085937 2.28125.683594 2.589844 1.839844.402343 1.046875 0 2.234375-.957031 2.816406l-41.425782 29.769531c-2.84375 2.035156-4.035156 5.675782-2.945312 9l15.839844 48.144532c.410156 1.042968.019531 2.234374-.933594 2.832031-.960938.773437-2.328125.773437-3.289063 0l-41.457031-29.769531c-2.785156-2-6.539062-2-9.328125 0l-41.453125 29.769531c-.964844.761719-2.328125.761719-3.289062 0-.953126-.59375-1.34375-1.78125-.9375-2.824219l15.839843-48.152344c1.089844-3.324218-.101562-6.964844-2.941406-9l-41.449219-29.769531c-.960937-.582031-1.363281-1.769531-.960937-2.816406.3125-1.15625 1.398437-1.925781 2.59375-1.839844h51.238281c3.453125 0 6.519531-2.214844 7.601562-5.496094l15.832032-48.152343c.398437-1.085938 1.433594-1.8125 2.589844-1.8125 1.160156 0 2.195312.726562 2.59375 1.8125zm0 0" data-original="#000000" class="active-path" data-old_color="#000000" fill="#0DB496"/><path d="m88.085938 328h16v16h-16zm0 0" data-original="#000000" class="active-path" data-old_color="#000000" fill="#0DB496"/><path d="m184.085938 400h16v16h-16zm0 0" data-original="#000000" class="active-path" data-old_color="#000000" fill="#0DB496"/><path d="m280.085938 328h16v16h-16zm0 0" data-original="#000000" class="active-path" data-old_color="#000000" fill="#0DB496"/><path d="m120.085938 208h16v16h-16zm0 0" data-original="#000000" class="active-path" data-old_color="#000000" fill="#0DB496"/><path d="m248.085938 208h16v16h-16zm0 0" data-original="#000000" class="active-path" data-old_color="#000000" fill="#0DB496"/></g> </svg>
