<?xml version="1.0"?>
<svg xmlns="http://www.w3.org/2000/svg" height="512px" viewBox="0 -70 480.00383 480" width="512px" class=""><g><path d="m456 276.882812v-16.320312c.113281-32.191406-21.15625-60.546875-52.097656-69.449219l-39.199219-10.894531c-.800781-.433594-1.597656-.929688-2.445313-1.359375-4.929687-2.601563-9.800781-5.320313-14.546874-8.242187-1.40625-.863282-2.742188-1.8125-4.136719-2.703126-4.238281-2.71875-8.429688-5.519531-12.503907-8.488281-1.238281-.902343-2.398437-1.855469-3.664062-2.773437-4.125-3.136719-8.191406-6.363282-12.125-9.738282-1.074219-.917968-2.136719-1.863281-3.203125-2.800781-3.921875-3.46875-7.738281-7.0625-11.445313-10.773437-1.03125-1.03125-2.066406-2.066406-3.082031-3.113282-3.511719-3.640624-6.886719-7.398437-10.183593-11.238281-1.109376-1.296875-2.246094-2.570312-3.328126-3.882812-2.925781-3.550781-5.703124-7.199219-8.429687-10.925781-1.28125-1.738282-2.617187-3.425782-3.855469-5.191407-2.21875-3.203125-4.265625-6.464843-6.339844-9.738281-1.503906-2.398438-3.085937-4.664062-4.519531-7.085938-3.277343-5.601562-6.398437-11.199218-9.238281-17.050781l-.457031-.933593c-1.136719-2.335938-3.34375-3.976563-5.90625-4.394532-2.566407-.414062-5.175781.441406-6.996094 2.296875-15.289063 15.441407-39.542969 17.449219-57.160156 4.730469l-3.761719-2.738281c-7.25-5.332031-11.539062-13.789063-11.550781-22.792969.039062-16.257812-9.085938-31.15625-23.59375-38.503906-10.441407-5.324219-23.171875-2.824219-30.824219 6.058594-9.511719 10.996093-18.25 22.640624-26.148438 34.847656h-53.257812v16h43.464844c-4.800782 8.472656-9.121094 17.207031-13.136719 26.085937 0 .050781-.0625.097657-.089844.144531-.109375.25-.199219.496094-.308593.746094-.753907 1.671875-1.546876 3.335938-2.265626 5.023438h-27.664062v16h21.367188c-1.320313 3.605468-2.613282 7.199218-3.808594 10.886718-.566406 1.746094-1.054688 3.503907-1.597656 5.257813-1.234376 4-2.480469 8-3.554688 12.078125-.71875 2.730469-1.285156 5.464844-1.933594 8.199219-13.945312-5.929688-30.128906-.667969-37.921875 12.328125-8.625 14.660156-4.382812 33.5 9.6875 43.050781l92.160157 52.199219h-42.398438v16h70.6875l56.511719 32h-39.199219v16h67.449219l14.878906 8.421875c18.035156 10.203125 38.40625 15.570312 59.128906 15.578125h154.542969c16.097656.054687 29.714844-11.898438 31.75-27.867188 2.03125-15.96875-8.152344-30.949218-23.75-34.933594zm-123.929688-97.199218h-22.46875c-1.820312 0-3.582031-.617188-5-1.753906l-63.128906-50.496094c-1.660156-1.324219-2.726562-3.257813-2.960937-5.367188-.230469-2.113281.382812-4.230468 1.710937-5.886718l12.929688-16.144532c3.136718 4.855469 6.464844 9.601563 9.886718 14.191406.632813.855469 1.28125 1.6875 1.929688 2.535157 3.757812 4.964843 7.675781 9.796875 11.75 14.496093l.128906.152344c13.613282 15.597656 28.964844 29.589844 45.761719 41.695313l.261719.183593c3.050781 2.179688 6.082031 4.335938 9.199218 6.394532zm-208.527343-160.449219c2.839843-3.289063 7.558593-4.210937 11.425781-2.222656 9.140625 4.632812 14.886719 14.023437 14.855469 24.269531.03125 14.121094 6.777343 27.386719 18.175781 35.722656l3.753906 2.734375c20.769532 14.992188 48.746094 15.214844 69.75.550781.921875 1.722657 1.992188 3.347657 2.945313 5.042969l-16.6875 20.855469c-8.285157 10.347656-6.609375 25.453125 3.742187 33.734375l63.121094 50.496094c4.25 3.398437 9.53125 5.253906 14.976562 5.265625h51.007813l38.992187 10.839844c24.035157 6.949218 40.535157 29.015624 40.398438 54.039062v15.121094h-143.511719c-2.84375-.023438-5.679687-.265625-8.488281-.71875v-8.929688c-.0625-16.652344-8.691406-32.097656-22.839844-40.878906l-65.960937-40.570312c-9.421875-5.859376-15.164063-16.15625-15.199219-27.253907v-25.648437c0-4.417969-3.582031-8-8-8s-8 3.582031-8 8v25.648437c.0625 16.652344 8.691406 32.097657 22.839844 40.878907l65.960937 40.566406c9.421875 5.863281 15.164063 16.160156 15.199219 27.257812v3.886719c-.855469-.40625-1.734375-.75-2.566406-1.207031l-125.433594-69.199219v-32.359375c.085938-24.851562-12.726562-47.96875-33.839844-61.074219l-30.746094-19.199219c11.605469-24.429687 26.449219-47.183593 44.128907-67.648437zm4.457031 170.847656c-15.464844-8.582031-43.703125-24.230469-70.824219-39.0625 1.082031-4.863281 2.351563-9.679687 3.671875-14.472656.730469-2.617187 1.496094-5.226563 2.296875-7.824219.597657-1.976562 1.246094-3.925781 1.886719-5.886718 1.679688-5.074219 3.503906-10.117188 5.464844-15.128907l1.503906-3.855469c.296875-.738281.550781-1.472656.855469-2.199218l28.800781 18.015625c16.429688 10.183593 26.398438 28.15625 26.34375 47.488281zm320 133.601563h-154.542969c-17.960937-.003906-35.617187-4.65625-51.25-13.503906l-18.207031-10.304688v-.191406h-.34375l-200.855469-113.703125c-6.832031-4.839844-8.800781-14.117188-4.519531-21.3125 2.070312-3.449219 5.492188-5.871094 9.429688-6.683594s8.039062.058594 11.304687 2.402344c.253906.191406.523437.367187.800781.519531l221.945313 121.890625c10.621093 5.820313 22.539062 8.878906 34.652343 8.886719h151.394532c8.859375.019531 16.066406 7.140625 16.191406 16 0 8.835937-7.164062 16-16 16zm0 0" data-original="#000000" class="active-path" data-old_color="#000000" fill="#0DB496"/><path d="m0 251.683594h16v16h-16zm0 0" data-original="#000000" class="active-path" data-old_color="#000000" fill="#0DB496"/><path d="m32 251.683594h16v16h-16zm0 0" data-original="#000000" class="active-path" data-old_color="#000000" fill="#0DB496"/><path d="m88 299.683594h16v16h-16zm0 0" data-original="#000000" class="active-path" data-old_color="#000000" fill="#0DB496"/><path d="m120 299.683594h16v16h-16zm0 0" data-original="#000000" class="active-path" data-old_color="#000000" fill="#0DB496"/><path d="m0 43.683594h16v16h-16zm0 0" data-original="#000000" class="active-path" data-old_color="#000000" fill="#0DB496"/><path d="m0 91.683594h16v16h-16zm0 0" data-original="#000000" class="active-path" data-old_color="#000000" fill="#0DB496"/></g> </svg>
