<?xml version="1.0"?>
<svg xmlns="http://www.w3.org/2000/svg" height="512px" viewBox="-50 0 480 480" width="512px" class=""><g><path d="m188.9375 392c83.949219 0 152-68.050781 152-152s-68.050781-152-152-152c-83.945312 0-152 68.050781-152 152 .09375 83.910156 68.09375 151.90625 152 152zm0-288c75.113281 0 136 60.890625 136 136s-60.886719 136-136 136c-75.109375 0-136-60.890625-136-136 .085938-75.074219 60.925781-135.917969 136-136zm0 0" data-original="#000000" class="active-path" data-old_color="#000000" fill="#0DB496"/><path d="m261.625 165.601562c-4.277344-4.1875-8.90625-7.996093-13.839844-11.386718l-9.0625 13.183594c4.175782 2.859374 8.101563 6.070312 11.726563 9.601562zm0 0" data-original="#000000" class="active-path" data-old_color="#000000" fill="#0DB496"/><path d="m232.1875 145.390625c-5.449219-2.492187-11.105469-4.507813-16.90625-6.023437l-4.039062 15.480468c4.898437 1.285156 9.679687 2.992188 14.289062 5.097656zm0 0" data-original="#000000" class="active-path" data-old_color="#000000" fill="#0DB496"/><path d="m268.136719 201.601562 14.402343-6.992187c-2.617187-5.386719-5.695312-10.535156-9.199218-15.386719l-12.976563 9.363282c2.960938 4.105468 5.5625 8.457031 7.773438 13.015624zm0 0" data-original="#000000" class="active-path" data-old_color="#000000" fill="#0DB496"/><path d="m262.363281 288.511719 13.335938 8.847656c3.308593-4.996094 6.183593-10.269531 8.582031-15.757813l-14.664062-6.402343c-2.023438 4.640625-4.449219 9.097656-7.253907 13.3125zm0 0" data-original="#000000" class="active-path" data-old_color="#000000" fill="#0DB496"/><path d="m274.457031 260.800781 15.554688 3.773438c1.410156-5.820313 2.316406-11.75 2.710937-17.726563l-16-1.046875c-.320312 5.054688-1.078125 10.074219-2.265625 15zm0 0" data-original="#000000" class="active-path" data-old_color="#000000" fill="#0DB496"/><path d="m276.441406 230.632812 15.914063-1.671874c-.625-5.957032-1.769531-11.84375-3.417969-17.601563l-15.382812 4.402344c1.386718 4.863281 2.355468 9.839843 2.886718 14.871093zm0 0" data-original="#000000" class="active-path" data-old_color="#000000" fill="#0DB496"/><path d="m188.9375 344c21.777344.050781 43.011719-6.78125 60.671875-19.519531 3.519531-2.601563 4.296875-7.546875 1.742187-11.101563-2.554687-3.554687-7.488281-4.394531-11.078124-1.890625-26.808594 19.253907-62.136719 21.890625-91.503907 6.820313-29.371093-15.066406-47.835937-45.300782-47.832031-78.308594.207031-45.671875 35.160156-83.675781 80.65625-87.695312 4.40625-.363282 7.683594-4.226563 7.320312-8.632813-.363281-4.40625-4.226562-7.683594-8.632812-7.320313-55.605469 4.585938-97.683594 52.234376-95.359375 107.980469 2.324219 55.746094 48.222656 99.726563 104.015625 99.667969zm0 0" data-original="#000000" class="active-path" data-old_color="#000000" fill="#0DB496"/><path d="m1.890625 356.984375 41.136719 49.023437c1.519531 1.8125 3.761718 2.855469 6.128906 2.855469 1.339844 0 2.660156-.335937 3.839844-.976562l28.855468-15.789063c.625-.390625 1.1875-.867187 1.679688-1.417968.953125.671874 1.886719 1.359374 2.855469 2.015624l14.679687 80.738282c.691406 3.800781 4.003906 6.566406 7.871094 6.566406h160c3.867188 0 7.179688-2.765625 7.871094-6.566406l14.347656-78.929688c.058594-.53125.058594-1.070312 0-1.601562 1.414062-.941406 2.78125-1.933594 4.167969-2.917969l32.671875 17.878906c3.34375 1.828125 7.515625 1.042969 9.964844-1.878906l41.136718-49.023437c2.453125-2.921876 2.503906-7.167969.121094-10.144532l-23.480469-29.214844c22.910157-49.113281 22.933594-105.839843.0625-154.96875.957031-.476562 1.804688-1.144531 2.488281-1.960937l19.882813-24.800781c2.382813-2.976563 2.332031-7.222656-.121094-10.144532l-41.113281-49.078124c-2.449219-2.925782-6.628906-3.714844-9.976562-1.878907l-28.46875 15.582031c-.441407.300782-.851563.648438-1.21875 1.03125-1.902344-1.382812-3.808594-2.765624-5.765626-4.078124l-14.699218-80.738282c-.691406-3.800781-4.003906-6.566406-7.871094-6.566406h-160c-3.867188 0-7.179688 2.765625-7.871094 6.566406l-14.609375 80.34375v.347656c-1.421875.957032-2.816406 1.972657-4.207031 2.964844l-28.246094-15.453125c-3.347656-1.832031-7.519531-1.042969-9.96875 1.878907l-41.128906 49.023437c-2.453125 2.921875-2.503906 7.167969-.121094 10.144531l19.875 24.800782c.0625.070312.160156.09375.222656.175781-24.0625 50.371093-23.921874 108.953125.382813 159.207031l-21.527344 26.839844c-2.375 2.984375-2.308593 7.230468.152344 10.144531zm260.375 107.015625h-146.65625l-11.007813-60.550781c52.882813 27.394531 115.78125 27.394531 168.664063 0zm100.328125-112.28125-32.703125 38.976562-20.902344-11.429687c15.308594-13.210937 28.351563-28.835937 38.613281-46.257813zm-33.71875-259.765625 32.703125 38.976563-13.511719 16.871093c-9.992187-17.179687-22.691406-32.636719-37.601562-45.777343zm-213.265625-75.953125h146.65625l11 60.542969c-52.882813-27.398438-115.78125-27.398438-168.664063 0zm-96.230469 114.929688 32.703125-38.976563 16.511719 9.039063c-14.773438 12.796874-27.429688 27.851562-37.496094 44.609374zm169.558594-58.929688c92.785156 0 168 75.214844 168 168s-75.214844 168-168 168c-92.78125 0-168-75.214844-168-168 .101562-92.742188 75.257812-167.898438 168-168zm-157.375 263.238281c10.335938 16.988281 23.339844 32.203125 38.511719 45.058594l-19.007813 10.398437-32.703125-38.976562zm0 0" data-original="#000000" class="active-path" data-old_color="#000000" fill="#0DB496"/><path d="m163.570312 208c-12.390624-.003906-23.5625 7.457031-28.304687 18.90625s-2.117187 24.625 6.648437 33.382812l41.367188 41.367188c3.125 3.121094 8.1875 3.121094 11.3125 0l41.367188-41.367188c11.960937-11.960937 11.960937-31.351562 0-43.3125-11.957032-11.960937-31.351563-11.960937-43.308594 0l-3.714844 3.710938-3.710938-3.710938c-5.726562-5.765624-13.527343-9-21.65625-8.976562zm31.023438 29.65625 9.367188-9.367188c3.667968-3.832031 9.121093-5.375 14.253906-4.039062 5.132812 1.335938 9.136718 5.34375 10.472656 10.472656 1.335938 5.132813-.207031 10.585938-4.035156 14.253906l-35.714844 35.710938-35.710938-35.710938c-3.828124-3.667968-5.375-9.121093-4.039062-14.253906 1.335938-5.128906 5.34375-9.136718 10.476562-10.472656 5.128907-1.335938 10.582032.207031 14.25 4.039062l9.367188 9.367188c3.125 3.121094 8.1875 3.121094 11.3125 0zm0 0" data-original="#000000" class="active-path" data-old_color="#000000" fill="#0DB496"/></g> </svg>
