<?xml version="1.0"?>
<svg xmlns="http://www.w3.org/2000/svg" height="512px" viewBox="0 -7 463.95574 463" width="512px" class=""><g><path d="m151.957031 320.476562h160c4.417969 0 8-3.582031 8-8v-152c0-4.417968-3.582031-8-8-8h-32c-4.417969 0-8 3.582032-8 8v24h-80v-24c0-4.417968-3.582031-8-8-8h-32c-4.417969 0-8 3.582032-8 8v152c0 4.417969 3.582031 8 8 8zm128-120h24v16h-144v-16zm-120 104v-72h144v72zm128-136h16v16h-16zm-128 0h16v16h-16zm0 0" data-original="#000000" class="active-path" data-old_color="#000000" fill="#0DB496"/><path d="m463.523438 174.414062c-.082032-.515624-.21875-1.023437-.40625-1.511718l-16-32c-.578126-1.09375-1.398438-2.039063-2.402344-2.761719l-53.6875-101.40625c-.292969-.511719-.644532-.988281-1.039063-1.425781-.089843-.101563-.152343-.222656-.242187-.328125-.65625-.652344-1.414063-1.191407-2.246094-1.597657-.113281-.050781-.183594-.152343-.296875-.207031l-72-32c-1.023437-.457031-2.128906-.695312-3.246094-.699219h-160c-1.121093 0-2.226562.234376-3.25.6875l-72 32c-.0625 0-.101562.097657-.167969.121094-.898437.425782-1.714843 1.015625-2.398437 1.738282l-.058594.078124c-.449219.488282-.839843 1.023438-1.167969 1.601563l-53.710937 101.4375c-1.007813.71875-1.828125 1.664063-2.398437 2.761719l-16 32c-.1875.488281-.324219.996094-.410157 1.511718-.171875.46875-.3046872.953126-.39062475 1.449219-.02343745.765625.06249995 1.527344.25390575 2.269531.058594.257813 0 .527344.089844.800782.65625 2.03125 2.097656 3.714844 4 4.679687l91.609375 45.808594v211.054687c0 4.417969 3.582031 8 8 8h256c4.417969 0 8-3.582031 8-8v-211.054687l91.574219-45.742187c1.90625-.964844 3.34375-2.652344 4-4.683594.082031-.253906 0-.527344.089844-.796875.226562-.757813.335937-1.546875.335937-2.335938-.101562-.496093-.246093-.980469-.433593-1.449219zm-95.566407-84.046874 16.199219-32.410157 44.152344 83.402344-60.351563 30.175781zm-104-73.890626v16h-64v-16zm-1.136719 32c-3.59375 14.113282-16.300781 23.992188-30.863281 23.992188-14.566406 0-27.273437-9.878906-30.867187-23.992188zm-78.863281-32v24c0 26.511719 21.488281 48 48 48 26.507813 0 48-21.488281 48-48v-24h16v24c0 35.347657-28.65625 64-64 64-35.347656 0-64-28.652343-64-64v-24zm-32 .753907v23.246093c0 44.183594 35.816407 80 80 80 44.179688 0 80-35.816406 80-80v-23.246093l61.101563 27.199219-20.261719 40.511718c-.546875 1.097656-.835937 2.308594-.839844 3.535156v312h-240v-312c0-1.238281-.289062-2.464843-.839843-3.574218l-20.265626-40.511719zm-72.203125 40.726562 16.203125 32.410157v81.167968l-60.351562-30.175781zm-60.902344 115.023438 9.257813-17.480469 67.847656 33.921875v22.113281zm333.105469 259.496093h-240v-16h240zm16-243.054687 67.847657-33.921875 9.253906 17.480469-77.101563 38.554687zm0 0" data-original="#000000" class="active-path" data-old_color="#000000" fill="#0DB496"/><path d="m319.957031 368.476562h16v16h-16zm0 0" data-original="#000000" class="active-path" data-old_color="#000000" fill="#0DB496"/><path d="m287.957031 368.476562h16v16h-16zm0 0" data-original="#000000" class="active-path" data-old_color="#000000" fill="#0DB496"/><path d="m255.957031 368.476562h16v16h-16zm0 0" data-original="#000000" class="active-path" data-old_color="#000000" fill="#0DB496"/></g> </svg>
