<?xml version="1.0"?>
<svg xmlns="http://www.w3.org/2000/svg" height="512px" viewBox="0 -56 480.03065 480" width="512px" class=""><g><path d="m272.023438 144.015625c-44.183594 0-80 35.816406-80 80s35.816406 80 80 80c44.183593 0 80-35.816406 80-80-.050782-44.164063-35.839844-79.953125-80-80zm0 144c-35.347657 0-64-28.652344-64-64s28.652343-64 64-64c35.34375 0 64 28.652344 64 64-.039063 35.328125-28.671876 63.960937-64 64zm0 0" data-original="#000000" class="active-path" data-old_color="#000000" fill="#0DB496"/><path d="m440.023438 184.015625c-10.121094.03125-19.851563 3.921875-27.199219 10.878906-16.042969-66.9375-75.636719-114.324219-144.464844-114.878906h-76.335937c-4.417969 0-8 3.582031-8 8v24h-48v-24c0-4.417969-3.582032-8-8-8h-81.921876c-3.34375-9.382813-12.121093-15.742187-22.078124-16-13.867188.671875-24.589844 12.417969-24.0000005 26.289063v91.421874c-.5898435 13.871094 10.1328125 25.613282 24.0000005 26.289063 9.957031-.257813 18.734374-6.617187 22.078124-16h27.050782c28.902344.144531 53.0625 22.019531 56.070312 50.769531l.191406 1.445313c9.546876 65.378906 62.140626 116 127.832032 123.050781 4.800781.476562 9.65625.71875 14.464844.71875 68.367187.195312 127.417968-47.777344 141.230468-114.738281 13.132813 12.164062 32.75 14.109375 48.011719 4.757812 15.261719-9.347656 22.441406-27.707031 17.570313-44.929687-4.871094-17.222656-20.601563-29.101563-38.5-29.074219zm-416 8c-4.972657-.769531-8.480469-5.28125-8-10.289063v-91.421874c-.480469-5.007813 3.027343-9.519532 8-10.289063 4.96875.769531 8.476562 5.28125 8 10.289063v91.421874c.476562 5.007813-3.03125 9.519532-8 10.289063zm334.671874 126.183594c-26.914062 25-63.34375 37.09375-99.863281 33.152343-58.34375-6.253906-105.058593-51.199218-113.5625-109.257812l-.183593-1.382812c-4.351563-36.558594-35.121094-64.230469-71.933594-64.695313h-25.128906v-80h72v24c0 4.417969 3.582031 8 8 8h64c4.417968 0 8-3.582031 8-8v-24h68.335937c70.191406 0 130.488281 57.601563 131.664063 125.769531.601562 36.558594-14.433594 71.640625-41.328126 96.414063zm81.328126-70.183594c-13.253907 0-24-10.746094-24-24s10.746093-24 24-24c13.253906 0 24 10.746094 24 24s-10.746094 24-24 24zm0 0" data-original="#000000" class="active-path" data-old_color="#000000" fill="#0DB496"/><path d="m152.023438 8.015625v48c0 4.417969 3.582031 8 8 8 4.417968 0 8-3.582031 8-8v-48c0-4.417969-3.582032-8-8-8-4.417969 0-8 3.582031-8 8zm0 0" data-original="#000000" class="active-path" data-old_color="#000000" fill="#0DB496"/><path d="m218.367188 18.359375-33.945313 33.945313c-2.078125 2.007812-2.914063 4.980468-2.179687 7.777343.730468 2.796875 2.914062 4.984375 5.710937 5.714844s5.773437-.101563 7.78125-2.179687l33.945313-33.945313c3.03125-3.140625 2.988281-8.128906-.097657-11.214844-3.085937-3.085937-8.078125-3.128906-11.214843-.097656zm0 0" data-original="#000000" class="active-path" data-old_color="#000000" fill="#0DB496"/><path d="m88.421875 18.359375c-3.121094 3.125-3.121094 8.1875 0 11.3125l33.945313 33.945313c3.136718 3.03125 8.128906 2.988281 11.214843-.097657 3.085938-3.085937 3.128907-8.078125.097657-11.214843l-33.945313-33.945313c-3.125-3.125-8.1875-3.125-11.3125 0zm0 0" data-original="#000000" class="active-path" data-old_color="#000000" fill="#0DB496"/></g> </svg>
